<?xml version="1.0" encoding="UTF-8"?><svg id="Layer_1" xmlns="http://www.w3.org/2000/svg" viewBox="0 0 95 48"><defs><style>.cls-1{fill:#ff8c00;}.cls-2{fill:#2d3540;}</style></defs><path class="cls-2" d="M46.51,27.24h1.49v3.35h1.08l1.93-3.35h1.61l-2.33,3.9v.02l2.47,4.28h-1.69l-1.99-3.59h-1.06v3.59h-1.49l-.02-8.21Zm9.58,2.17c1.79,0,3.25,1.27,3.25,3.09s-1.45,3.09-3.25,3.09-3.25-1.27-3.25-3.09c.02-1.81,1.45-3.09,3.25-3.09Zm0,4.92c1.02,.06,1.87-.74,1.93-1.75,.06-1.02-.74-1.87-1.75-1.93-1.02-.06-1.87,.74-1.93,1.75v.1c-.04,.98,.7,1.79,1.67,1.83h.08Zm4.42-4.78h1.39v4.66h1.83v-4.66h1.39v4.66h1.85v-4.66h1.37v5.9h-7.87l.02-5.9Zm12.09-.14c1.69,0,2.61,1.24,2.61,2.79,0,.2-.02,.38-.04,.58h-4.04c.1,1.04,.88,1.55,1.77,1.55,.62-.02,1.22-.26,1.69-.66l.58,1.06c-.68,.54-1.51,.84-2.37,.84-1.95,0-3.19-1.41-3.19-3.09-.02-1.79,1.22-3.07,2.99-3.07h0Zm1.14,2.35c0-.78-.52-1.25-1.18-1.25-.72,0-1.33,.54-1.41,1.25h2.59Zm2.17,2.45c.74-.1,1.24-.72,1.24-2.81v-1.85h4.3v5.9h-1.47v-4.7h-1.43v.66c0,2.57-.68,4.04-2.63,4.1v-1.29h0Zm9.74-4.8c1.69,0,2.61,1.24,2.61,2.79,0,.2-.02,.38-.04,.58h-4.04c.06,.92,.86,1.61,1.77,1.55,.62-.02,1.22-.26,1.69-.66l.58,1.06c-.68,.54-1.51,.84-2.37,.84-1.95,0-3.19-1.41-3.19-3.09-.02-1.79,1.22-3.07,2.99-3.07h0Zm1.14,2.35c-.02-.78-.52-1.25-1.18-1.25-.72,0-1.33,.54-1.41,1.25h2.59Zm2.71-2.19h1.47v2.25h.72l1.43-2.25h1.63l-1.87,2.81v.02l2.11,3.07h-1.69l-1.55-2.39h-.76v2.39h-1.47v-5.9h-.02Z"/><path class="cls-1" d="M67.17,8.93v13.94c0,.2-.16,.38-.38,.38h-2.85c-.2,0-.38-.16-.38-.38h0V8.93c0-.2,.16-.38,.38-.38h2.85c.2,0,.38,.16,.38,.38Zm22.19-.38h-3.19c-.16,0-.32,.12-.36,.28l-2.53,8.23-2.77-8.25c-.06-.16-.2-.26-.36-.26h-2.23c-.16,0-.3,.1-.36,.26l-2.77,8.25-2.51-8.25c-.04-.16-.2-.28-.36-.28h-3.19c-.12,0-.24,.06-.32,.16s-.1,.22-.06,.34l4.7,13.94c.06,.16,.2,.26,.36,.26h2.53c.16,0,.3-.1,.36-.26l2.75-8.15,2.75,8.15c.06,.16,.2,.26,.36,.26h2.53c.16,0,.3-.1,.36-.26l4.7-13.94c.04-.12,.02-.24-.06-.34-.1-.1-.22-.16-.34-.14Zm4.8,0h-2.85c-.2,0-.38,.16-.38,.38h0v13.94c0,.2,.16,.38,.38,.38h2.85c.2,0,.38-.16,.38-.38V8.93c0-.22-.18-.38-.38-.38Zm-32.25,14.22c.12,.1,.12,.28,.02,.4-.06,.06-.16,.1-.24,.1h-3.49c-.14,0-.28-.06-.36-.18l-.6-.72c-3.57,2.31-8.35,1.27-10.66-2.29s-1.27-8.35,2.29-10.66c3.57-2.31,8.35-1.27,10.66,2.29,1.63,2.53,1.65,5.8,0,8.35l2.37,2.71Zm-6.93-3.11l-1.53-1.85c-.1-.12-.08-.32,.04-.42,.06-.04,.12-.06,.18-.06h3.21c.16-.46,.24-.96,.24-1.43,0-2.31-1.71-4.28-4.06-4.28-2.35-.02-4.06,1.97-4.06,4.26s1.71,4.26,4.06,4.26c.68,0,1.35-.16,1.93-.48Zm-22.15,9.86c-.28-.14-.64-.06-.8,.22-.2,.38-.06,1.14,.36,1.79s.8,1,1.08,1,.52-.34,.4-1.18c-.04-.48-.32-1.55-1.04-1.83Zm-4.2,3.11c-.34-.02-.68,.12-.9,.38-.5,.62-.28,1.71,.5,2.37,.36,.3,.82,.46,1.29,.46,.44,.02,.86-.16,1.14-.5,.44-.6,.2-1.45-.66-2.17-.38-.32-.86-.52-1.37-.54h0Zm-9.64,7.99C8.49,40.62,0,32.12,0,21.62S8.51,2.64,19,2.64s18.98,8.51,18.98,19c0,3.43-.94,6.79-2.69,9.74-.04,.06-.1,.08-.16,.04-.04-.02-.06-.06-.06-.08-.66-4.66-3.51-7.25-7.65-8.01-.36-.06-.42-.28,.04-.32,1.33-.12,2.67-.1,3.98,.08,.06-.48,.08-.98,.08-1.45,0-6.93-5.62-12.55-12.55-12.55S6.43,14.71,6.43,21.64s5.62,12.55,12.55,12.55h.6c-.2-1.12-.28-2.25-.24-3.39,.04-.78,.18-.88,.54-.28,1.73,2.99,4.22,5.72,9.08,6.79,3.96,.88,7.93,1.91,12.23,7.33,.38,.48-.2,.96-.64,.58-4.38-3.86-8.33-5.12-11.97-5.12-4.04-.02-6.81,.52-9.6,.52Z"/></svg>